<svg width="100" height="89" viewBox="0 0 100 89" fill="none" xmlns="http://www.w3.org/2000/svg">
<mask id="path-1-inside-1_1_19" fill="white">
<path fill-rule="evenodd" clip-rule="evenodd" d="M8.00351 47.0105L49.8112 88.8182L87.8182 50.8112L87.79 50.783L92.1886 46.3844C102.684 35.8891 102.684 18.8728 92.1886 8.37743C81.6932 -2.11791 64.6769 -2.11791 54.1816 8.37743L49.783 12.776L46.0105 9.00349C35.5152 -1.49185 18.4988 -1.49185 8.00351 9.00349C-2.49183 19.4988 -2.49183 36.5151 8.00351 47.0105Z"/>
</mask>
<path fill-rule="evenodd" clip-rule="evenodd" d="M8.00351 47.0105L49.8112 88.8182L87.8182 50.8112L87.79 50.783L92.1886 46.3844C102.684 35.8891 102.684 18.8728 92.1886 8.37743C81.6932 -2.11791 64.6769 -2.11791 54.1816 8.37743L49.783 12.776L46.0105 9.00349C35.5152 -1.49185 18.4988 -1.49185 8.00351 9.00349C-2.49183 19.4988 -2.49183 36.5151 8.00351 47.0105Z" fill="#FF0000"/>
<path d="M49.8112 88.8182L42.7401 95.8892L49.8112 102.96L56.8823 95.8892L49.8112 88.8182ZM87.8182 50.8112L94.8893 57.8822L101.96 50.8112L94.8893 43.7401L87.8182 50.8112ZM87.79 50.783L80.7189 43.7119L73.6479 50.783L80.7189 57.8541L87.79 50.783ZM49.783 12.776L42.7119 19.8471L49.783 26.9181L56.8541 19.8471L49.783 12.776ZM56.8823 81.7471L15.0746 39.9394L0.932442 54.0816L42.7401 95.8892L56.8823 81.7471ZM80.7471 43.7401L42.7401 81.7471L56.8823 95.8892L94.8893 57.8822L80.7471 43.7401ZM80.7189 57.8541L80.7471 57.8822L94.8893 43.7401L94.8611 43.7119L80.7189 57.8541ZM85.1175 39.3133L80.7189 43.7119L94.8611 57.8541L99.2597 53.4555L85.1175 39.3133ZM85.1175 15.4485C91.7076 22.0386 91.7076 32.7233 85.1175 39.3133L99.2597 53.4555C113.66 39.0549 113.66 15.7069 99.2597 1.30636L85.1175 15.4485ZM61.2527 15.4485C67.8428 8.8584 78.5274 8.8584 85.1175 15.4485L99.2597 1.30636C84.8591 -13.0942 61.5111 -13.0942 47.1105 1.30636L61.2527 15.4485ZM56.8541 19.8471L61.2527 15.4485L47.1105 1.30636L42.7119 5.70494L56.8541 19.8471ZM38.9394 16.0746L42.7119 19.8471L56.8541 5.70494L53.0816 1.93243L38.9394 16.0746ZM15.0746 16.0746C21.6647 9.48447 32.3493 9.48447 38.9394 16.0746L53.0816 1.93243C38.681 -12.4682 15.333 -12.4682 0.932442 1.93243L15.0746 16.0746ZM15.0746 39.9394C8.48448 33.3493 8.48448 22.6647 15.0746 16.0746L0.932442 1.93243C-13.4681 16.333 -13.4681 39.681 0.932442 54.0816L15.0746 39.9394Z" fill="#D9D9D9" mask="url(#path-1-inside-1_1_19)"/>
</svg>
